<svg xmlns="http://www.w3.org/2000/svg" viewBox="0 0 512 512"><defs><linearGradient id="accO" gradientUnits="userSpaceOnUse" x1="88" y1="40" x2="30" y2="96"><stop offset="0" stop-color="#fff" stop-opacity="0"/><stop offset=".25" stop-color="#22d3ee"/><stop offset=".6" stop-color="#3b82f6"/><stop offset="1" stop-color="#8b5cf6"/></linearGradient><linearGradient id="accR" gradientUnits="userSpaceOnUse" x1="135" y1="55" x2="180" y2="106"><stop offset="0" stop-color="#22d3ee"/><stop offset=".55" stop-color="#3b82f6"/><stop offset="1" stop-color="#8b5cf6"/></linearGradient><linearGradient id="bg" x1="0" y1="0" x2="1" y2="1"><stop offset="0" stop-color="#1a0b4d"/><stop offset=".5" stop-color="#070b2a"/><stop offset="1" stop-color="#0a2a7a"/></linearGradient>
<radialGradient id="gv" cx="0" cy="0" r=".7"><stop offset="0" stop-color="#6d28d9" stop-opacity=".85"/><stop offset="1" stop-color="#6d28d9" stop-opacity="0"/></radialGradient>
<radialGradient id="gc" cx="1" cy="1" r=".75"><stop offset="0" stop-color="#22d3ee" stop-opacity=".8"/><stop offset=".5" stop-color="#2563eb" stop-opacity=".35"/><stop offset="1" stop-color="#2563eb" stop-opacity="0"/></radialGradient></defs>
<rect width="512" height="512" rx="112" fill="url(#bg)"/><rect width="512" height="512" rx="112" fill="url(#gv)"/><rect width="512" height="512" rx="112" fill="url(#gc)"/>
<g transform="translate(68.4 172.0) scale(1.400)"><g fill="none">
  <circle cx="50" cy="60" r="36" stroke="#fff" stroke-width="21"/>
  <path d="M83.83 47.69 A36 36 0 0 1 26.86 87.58" stroke="url(#accO)" stroke-width="21.5"/>
  <path d="M118.5 106 V24.5 H155 A18.75 18.75 0 0 1 155 62 H129" stroke="#fff" stroke-width="21"/>
  <path d="M129 51.5 H153 L187 106 H160 L129 60 Z" fill="url(#accR)"/>
  <path d="M206.5 106 V24.5 H243 A18.75 18.75 0 0 1 243 62 H217" stroke="#fff" stroke-width="21"/>
</g></g></svg>